<svg xmlns="http://www.w3.org/2000/svg" width="48" height="48" viewBox="0 0 48 48" aria-label="Facebook"><g fill="none" fill-rule="evenodd"><rect width="46" height="46" x="1.25" y="1.26" stroke="currentColor" rx="23"></rect><path fill="currentColor" d="M25.8988095,19.3552479 L25.8988095,21.7659621 L29.3809524,21.7659621 L29.3809524,25.3820336 L25.8988095,25.3820336 L25.8988095,33.8195336 L22.4166667,33.8195336 L22.4166667,25.3820336 L19.7083333,25.3820336 L19.7083333,21.7659621 L22.4166667,21.7659621 L22.4166667,19.3552479 C22.4166667,18.0309621 22.8329762,16.8979264 23.6640476,15.9513193 C24.4935714,15.0063193 25.4979762,14.5338193 26.672619,14.5338193 L29.3809524,14.5338193 L29.3809524,18.1498907 L26.672619,18.1498907 C26.4575,18.1498907 26.274881,18.2704264 26.1247619,18.5082836 C25.9746429,18.7461407 25.8988095,19.0289979 25.8988095,19.3552479"></path></g></svg>